/* XPM */
static char *_68408c1eaca46798d8ccf8330ac53e4fNjP9aDlkl7tJXzN[] = {
/* columns rows colors chars-per-pixel */
"40 40 116 2 ",
"   c #DE7712",
".  c #DC7A14",
"X  c #DB7A1B",
"o  c #E6750F",
"O  c #E9770F",
"+  c #EE7A0E",
"@  c #F07B0F",
"#  c #E47610",
"$  c #E57A12",
"%  c #EC7C10",
"&  c #E07C1A",
"*  c #F07E11",
"=  c #DF8C1B",
"-  c #E38417",
";  c #EC8212",
":  c #EF8318",
">  c #E08B1D",
",  c #F18312",
"<  c #F1861A",
"1  c #F18A1E",
"2  c #EC9119",
"3  c #F39017",
"4  c #F39318",
"5  c #F49819",
"6  c #EFA21F",
"7  c #DD8525",
"8  c #DE8923",
"9  c #DE8B2A",
"0  c #F39326",
"q  c #F39729",
"w  c #E39A34",
"e  c #E49F3B",
"r  c #EEA120",
"t  c #ECAF26",
"y  c #F6A324",
"u  c #F4AC23",
"i  c #F6A62A",
"p  c #EFB628",
"a  c #F0B126",
"s  c #F9B425",
"d  c #FABA27",
"f  c #F0B629",
"g  c #F3BC2A",
"h  c #F8BC29",
"j  c #EFA73D",
"k  c #F1AC35",
"l  c #EDB435",
"z  c #F9BA3D",
"x  c #F6C22C",
"c  c #FBC52C",
"v  c #FBCA2E",
"b  c #F7C635",
"n  c #FDCF30",
"m  c #FBC638",
"M  c #EDD23D",
"N  c #FFD432",
"B  c #F4D338",
"V  c #FFD53C",
"C  c #EAAE43",
"Z  c #F6AF40",
"A  c #EBB34C",
"S  c #F6B342",
"D  c #F9BC46",
"F  c #F8B748",
"G  c #F8B849",
"H  c #BDCC5F",
"J  c #90C87D",
"K  c #B9CC62",
"L  c #B8D17C",
"P  c #DED047",
"I  c #FACB43",
"U  c #FACB4E",
"Y  c #E3D044",
"T  c #EDD347",
"R  c #F5D543",
"E  c #FFD744",
"W  c #FDD54B",
"Q  c #FFD94D",
"!  c #F9C152",
"~  c #FBCB57",
"^  c #F5CA5D",
"/  c #E3D55A",
"(  c #FCD051",
")  c #FFDB55",
"_  c #FDD95E",
"`  c #E3D96D",
"'  c #EDDC6D",
"]  c #F7D063",
"[  c #FCD463",
"{  c #F5DC66",
"}  c #FFDD65",
"|  c #FAD769",
" . c #F5DD69",
".. c #FDDC6B",
"X. c #E3DB75",
"o. c #EDDE75",
"O. c #E3DC78",
"+. c #F5DF72",
"@. c #FFE06E",
"#. c #FFE170",
"$. c #7CC58B",
"%. c #78C58E",
"&. c #65C39B",
"*. c #60C39E",
"=. c #73C592",
"-. c #73C697",
";. c #78C691",
":. c #7CC894",
">. c #73C79D",
",. c #78C89A",
"<. c #7CC999",
"1. c #54C2A7",
"2. c #60C3A0",
"3. c #60C4A2",
"4. c #B8D383",
"5. c #B8D386",
/* pixels */
"1.1.1.1.1.1.1.1.1.1.1.1.1.1.1.1.1.1.1.1.1.1.1.1.1.1.1.1.1.1.1.1.1.1.1.1.1.1.1.1.",
"1.1.1.1.1.1.1.1.1.1.1.1.1.1.1.1.1.1.1.1.1.1.1.1.1.1.1.1.1.1.1.1.1.1.1.1.1.1.1.1.",
"1.1.1.1.1.1.1.1.1.1.1.1.1.1.1.1.1.1.1.1.1.1.1.1.1.1.1.1.1.1.1.1.1.1.1.1.1.1.1.1.",
"1.1.1.1.1.1.1.1.1.1.1.1.1.1.1.1.1.1.1.1.1.1.1.1.1.1.1.1.1.1.1.1.1.1.1.1.1.1.1.1.",
"1.1.1.1.1.1.1.1.1.1.1.1.1.1.&.J H P B N N B P H J &.1.1.1.1.1.1.1.1.1.1.1.1.1.1.",
"1.1.1.1.1.1.1.1.1.1.1.1.%.H B N N N N N N N N N N B H %.1.1.1.1.1.1.1.1.1.1.1.1.",
"1.1.1.1.1.1.1.1.1.1.3.4.R N N N N N v x x v N N N N N B K *.1.1.1.1.1.1.1.1.1.1.",
"1.1.1.1.1.1.1.1.1.>.O.#.} V N t =   # # # # $ 2 a N N N N Y =.1.1.1.1.1.1.1.1.1.",
"1.1.1.1.1.1.1.1.<.o.#.#...C . o + @ , c h % @ @ + ; u n N N M $.1.1.1.1.1.1.1.1.",
"1.1.1.1.1.1.1.=.' #.#.] 9 # + @ @ @ , N v % @ @ @ @ + 2 c N N M =.1.1.1.1.1.1.1.",
"1.1.1.1.1.1.3./ V } ^ X + @ @ @ @ @ , N v % @ @ @ @ @ @ ; c N N Y *.1.1.1.1.1.1.",
"1.1.1.1.1.1.5.@.Q b X + @ @ @ @ , y s N N v c d u % @ @ @ , c N N K 1.1.1.1.1.1.",
"1.1.1.1.1.,.+.#...8 + @ @ @ @ 0 [ @.E N N N N N n # @ @ @ @ 4 n N B %.1.1.1.1.1.",
"1.1.1.1.1.K } #.A # @ @ @ @ < | #.#...I g g v N f O @ @ @ @ @ s N N H 1.1.1.1.1.",
"1.1.1.1.&.B N _ X + @ @ @ @ Z #.#...7 # + + % # - + @ @ @ @ @ , N N B &.1.1.1.1.",
"1.1.1.1.J N N t o @ @ @ @ @ D @.#.A + @ @ @ @ @ @ @ @ @ @ @ @ + s N N J 1.1.1.1.",
"1.1.1.1.H N N = + @ @ @ @ @ s ) @.| 1 @ @ @ @ @ @ @ @ @ @ @ @ @ 5 N N H 1.1.1.1.",
"1.1.1.1.P N N   @ @ @ @ @ @ i N ) @...S < @ @ @ @ @ @ @ @ @ @ @ , N N P 1.1.1.1.",
"1.1.1.1.B N v # @ @ @ @ @ @ * ( N ) @.#...G 1 @ @ @ @ @ @ @ @ @ @ v N B 1.1.1.1.",
"1.1.1.1.N N x # @ @ @ @ @ @ @ 0 U N ) @.#.#...S , @ @ @ @ @ @ @ * c N N 1.1.1.1.",
"1.1.1.1.N N x # @ @ @ @ @ @ @ @ : k N ) @.#.#.#.! % @ @ @ @ @ @ * c N N 1.1.1.1.",
"1.1.1.1.B N v # @ @ @ @ @ @ @ @ @ + ; r W @.#.#.#.j + @ @ @ @ @ @ v N B 1.1.1.1.",
"1.1.1.1.P N N $ @ @ @ @ @ @ @ @ @ @ @ @ % S ..#.#.[ % @ @ @ @ @ , N N P 1.1.1.1.",
"1.1.1.1.H N N 2 @ @ @ @ @ @ @ @ @ @ @ @ @ + z @.#...$ @ @ @ @ @ 5 N N H 1.1.1.1.",
"1.1.1.1.J N N a + @ @ @ @ @ @ @ @ @ @ @ @ @ y E @.| # @ @ @ @ + s N N J 1.1.1.1.",
"1.1.1.1.&.B N N ; @ @ @ @ @ 3 4 * * * * * 1 ~ V E ^ o @ @ @ @ < N N B &.1.1.1.1.",
"1.1.1.1.1.H N N u + @ @ @ @ s N N v c m [ @.#.} V > + @ @ @ @ F } V H 1.1.1.1.1.",
"1.1.1.1.1.%.B N n 2 @ @ @ @ v N N N N N E } #.| w O @ @ @ @ q } #. .;.1.1.1.1.1.",
"1.1.1.1.1.1.K N N c ; @ @ @ 6 t x N N N N l e & + @ @ @ @ < [ #.@.L 1.1.1.1.1.1.",
"1.1.1.1.1.1.*.Y N N c , @ @ @ + O o $ N v % + @ @ @ @ @ , ~ #.#.` *.1.1.1.1.1.1.",
"1.1.1.1.1.1.1.=.M N N c 4 @ @ @ @ @ , N v % @ @ @ @ @ q I V } ' -.1.1.1.1.1.1.1.",
"1.1.1.1.1.1.1.1.$.M N N n s , + @ @ , x p % @ @ + < F } @.Q T :.1.1.1.1.1.1.1.1.",
"1.1.1.1.1.1.1.1.1.=.Y N N N N s 5 , @ % % + , 5 s N } #.#.X.-.1.1.1.1.1.1.1.1.1.",
"1.1.1.1.1.1.1.1.1.1.*.K B N N N N N v c c v N N N N V { 4.2.1.1.1.1.1.1.1.1.1.1.",
"1.1.1.1.1.1.1.1.1.1.1.1.%.H B N N N N N N N N N N B H ;.1.1.1.1.1.1.1.1.1.1.1.1.",
"1.1.1.1.1.1.1.1.1.1.1.1.1.1.&.J H P B N N B P H J &.1.1.1.1.1.1.1.1.1.1.1.1.1.1.",
"1.1.1.1.1.1.1.1.1.1.1.1.1.1.1.1.1.1.1.1.1.1.1.1.1.1.1.1.1.1.1.1.1.1.1.1.1.1.1.1.",
"1.1.1.1.1.1.1.1.1.1.1.1.1.1.1.1.1.1.1.1.1.1.1.1.1.1.1.1.1.1.1.1.1.1.1.1.1.1.1.1.",
"1.1.1.1.1.1.1.1.1.1.1.1.1.1.1.1.1.1.1.1.1.1.1.1.1.1.1.1.1.1.1.1.1.1.1.1.1.1.1.1.",
"1.1.1.1.1.1.1.1.1.1.1.1.1.1.1.1.1.1.1.1.1.1.1.1.1.1.1.1.1.1.1.1.1.1.1.1.1.1.1.1."
};
