/* XPM */
static char *_ee699017bdf4697ac7ca4741727127afevryXGT3dQnAhtO[] = {
/* columns rows colors chars-per-pixel */
"40 40 217 2 ",
"   c #473F3F",
".  c #5B493D",
"X  c #654C3D",
"o  c #734B3F",
"O  c #6A523C",
"+  c #7A5837",
"@  c #263146",
"#  c #2B3346",
"$  c #2B374A",
"%  c #3B3445",
"&  c #363847",
"*  c #35334B",
"=  c #3C314C",
"-  c #3D3B52",
";  c #4A3748",
":  c #58384C",
">  c #542F53",
",  c #5C2F55",
"<  c #4E3051",
"1  c #553252",
"2  c #6A2F5A",
"3  c #752E5D",
"4  c #7B2E5F",
"5  c #683455",
"6  c #763656",
"7  c #3A454C",
"8  c #2D4151",
"9  c #384A55",
"0  c #395559",
"q  c #385D63",
"w  c #356165",
"e  c #3D6666",
"r  c #37676B",
"t  c #3A6A6C",
"y  c #3E7472",
"u  c #3D7976",
"i  c #3F7E79",
"p  c #474045",
"a  c #5B4242",
"s  c #5A5548",
"d  c #474652",
"f  c #504E5D",
"g  c #435554",
"h  c #555758",
"j  c #674445",
"k  c #7E4A43",
"l  c #7B494B",
"z  c #586A5B",
"x  c #6F6D53",
"c  c #5B5066",
"v  c #705C61",
"b  c #446564",
"n  c #466F6F",
"m  c #5D666C",
"M  c #597C6A",
"N  c #477975",
"B  c #437E7A",
"V  c #666469",
"C  c #717172",
"Z  c #76757B",
"A  c #A82C32",
"S  c #865C37",
"D  c #98583C",
"F  c #AD5D3C",
"G  c #8B653A",
"H  c #996532",
"J  c #AE6B2E",
"K  c #AB6C2D",
"L  c #B3702C",
"P  c #BE732B",
"I  c #B9783B",
"U  c #C77728",
"Y  c #D97D27",
"T  c #D16A38",
"R  c #F57E2C",
"E  c #E56A3D",
"W  c #E77533",
"Q  c #EA7236",
"!  c #F47C32",
"~  c #F3783C",
"^  c #8F3B43",
"/  c #8A365B",
"(  c #953B59",
")  c #842E61",
"_  c #8C2E63",
"`  c #962F66",
"'  c #9A2E67",
"]  c #883160",
"[  c #973364",
"{  c #A82D6B",
"}  c #B32E6E",
"|  c #B82E6F",
" . c #A83366",
".. c #BC3568",
"X. c #BC2D71",
"o. c #CA366B",
"O. c #D73A6B",
"+. c #C42D74",
"@. c #CA2C75",
"#. c #D62C79",
"$. c #DD3472",
"%. c #E22C7C",
"&. c #EA3574",
"*. c #854A45",
"=. c #924A49",
"-. c #935958",
";. c #A25244",
":. c #AE5A42",
">. c #B35548",
",. c #AB4957",
"<. c #A74758",
"1. c #8C6847",
"2. c #8F7447",
"3. c #856951",
"4. c #9A7456",
"5. c #A87846",
"6. c #A87653",
"7. c #A94662",
"8. c #85797A",
"9. c #B96F61",
"0. c #C95947",
"q. c #D65A49",
"w. c #DB4B5B",
"e. c #C85452",
"r. c #E75E4A",
"t. c #F25D4E",
"y. c #F04E5C",
"u. c #E45653",
"i. c #EC5954",
"p. c #F15757",
"a. c #D86355",
"s. c #CE7751",
"d. c #F36A42",
"f. c #F2624A",
"g. c #F26748",
"h. c #F47645",
"j. c #F3685A",
"k. c #ED7153",
"l. c #C54772",
"z. c #EC4466",
"x. c #ED5464",
"c. c #E8676D",
"v. c #43847D",
"b. c #4C8479",
"n. c #51897C",
"m. c #64887B",
"M. c #F58C1F",
"N. c #DA8024",
"B. c #E48422",
"V. c #EE8820",
"C. c #F58526",
"Z. c #F48B23",
"A. c #F6932D",
"S. c #EE8230",
"D. c #F69634",
"F. c #F7983A",
"G. c #918375",
"H. c #B29479",
"J. c #D38C56",
"K. c #EF8E4C",
"L. c #F68D42",
"P. c #F79C42",
"I. c #F69749",
"U. c #F68A53",
"Y. c #F7A046",
"T. c #F7A149",
"R. c #F8A753",
"E. c #F8AB5C",
"W. c #C2966B",
"Q. c #D49F6B",
"!. c #C49C76",
"~. c #F69273",
"^. c #DCA065",
"/. c #D0A274",
"(. c #F5AA62",
"). c #F8AF62",
"_. c #F9B168",
"`. c #F4B072",
"'. c #F9B772",
"]. c #FABC7B",
"[. c #EE2C80",
"{. c #826980",
"}. c #448B82",
"|. c #4D8A82",
" X c #5A8B80",
".X c #489789",
"XX c #4B9A8C",
"oX c #579687",
"OX c #708A84",
"+X c #59A48B",
"@X c #4AA291",
"#X c #4DAA97",
"$X c #4DAD99",
"%X c #56A996",
"&X c #52AC99",
"*X c #4FB39D",
"=X c #51B49D",
"-X c #58B69B",
";X c #69A291",
":X c #52BDA4",
">X c #54C2A7",
",X c #8E8885",
"<X c #92908A",
"1X c #9A9995",
"2X c #AD988A",
"3X c #B8A38D",
"4X c #B2A8A3",
"5X c #D99D86",
"6X c #F4B981",
"7X c #FAC084",
"8X c #FBC58E",
"9X c #EAC49D",
"0X c #F9C895",
"qX c #FBCC9B",
"wX c #E9C8A8",
"eX c #FAD1A7",
"rX c #F2D5B8",
/* pixels */
">X>X>X>X>X>X>X>X>X>X>X>X>X>X>X>X>X>X>X>X>X>X>X>X>X>X>X>X>X>X>X>X>X>X>X>X>X>X>X>X",
">X>X>X>X>X>Xb.oX$X>X>X>X>X>X>X>X>X>X>X>X>X>X>X>X>X>X>X>X>X>X>X>X>X>X>X>X>X>X>X>X",
">X>X>X>X>Xc u.I 5. XoX$X:X>X>X>X>X>X>X>X>X>X>X>X>X>X>X>X>X>X>X>X>X>X>X>X>X>X>X>X",
">X>X>X>Xv.5X~.~ R.qXJ.4.1.2.XX>X>X>X>X>X>X>X>X>X>X>X>X>X>X>X>X>X>X>X>X>X>X>X>X>X",
">X>X>X>X0 C Z {.l.U.! D j v k -X>X>X>X>X>X>X>X>X>X>X>X>X>X>X>X>X>X>X>X>X>X>X>X>X",
">X>X>X>X|.& $ d Z 7.i.z.D S :.z >X>X>X>X>X>X>X>X>X>X>X>X>X>X>X>X>X>X>X>X>X>X>X>X",
">X>X>X>X%XZ # # 7 V p ; <.J.x.:.XX>X>X>X>X>X>X>X>X>X>X>X>X>X>X>X>X>X>X>X>X>X>X>X",
">X>X>X>X>X;Xm m # # @ @ ; / | o.x :X>X>X>X>X>X>X>X>X>X>X>X>X>X>X>X>X>X>X>X>X>X>X",
">X>X>X>X>X>X:X X% % % & l l.e.{ 6.oX>X>X>X>X>X>X>X>X>X>X>X>X>X>X>X>Xv.#X>X>X>X>X",
">X>X>X>X>XoXm.A A ^ j G.wXeX6X/ a.G.:X>X>X>X>X>X>X>X>X>X>X>X>X>X>X>X@Xh >X>X>X>X",
">X>X>X>XOX4X-.,.-.8.Q.D.F.P.E 2 i.!.B >X>X>X>X>X>X>X>X>X>X>X>X>X>X>X#X=.|.>X>X>X",
">X>X>X$XV 1X,X2XW.I.f.! k.d. .{ d.(.& 0 q y XX>X>X>X>X>X>X>X>X>X>X>XoXe.N >X>X>X",
">X>X>X$Xe.P.T.F.t.$..... .) = $.P.U.d H.eXrX4X<XoX>X>X>X>X>X>X>X>X>XM u.n >X>X>X",
">X>X>X>XC  .7.[ 5 # @ @ @ @ ' j._.g.-.8X8X8X8XeXrX1X|.:X>X>X>X>X>X%XJ.O.y >X>X>X",
">X>X>X>X>X*X*X:X>X$Xe # ' { { E.).y.c.'.8X).8X8X8XqXwX,Xb.-X>X*XoX3Xh.' B >X>X>X",
">X>X>X>X>X>X>X>X>X>X}.# +.d.e.I.L.%.j.Y.7XV.D.7X8X8X8X0X9X3X,X3X9XL.$.1 $X>X>X>X",
">X>X>X>X>X>X>X>X>X:X6 q./ r.P.I.q.{ p.S.7XS.Y D.8XT.Z.F.E.'.'.).h.&.` w >X>X>X>X",
">X>X>X>X>X>X>X>X>XoXe.E Z.E R ].I 4 &.t.P.T.;.M.R.E.W f.p.f.y.&.#.{ - *X>X>X>X>X",
">X>X>X>X>X>X>X>X>Xm p.*.A.M.F.D.6X; { +.d.A.E K A.8XT q.$.X.#.+._ * XX>X>X>X>X>X",
">X>X>X>X>X>X>X>X:X4.k.: ^.T.E.R.qX6., = ] s.U.6 M.qXU k g.2 * @ @ .X>X>X>X>X>X>X",
">X>X>X>X>X>X>X&XB 3.9.< 3.8X8X8X7X0Xs.( 1 /.L.3 Z.qXW k A.o.# 8 @X>X>X>X>X>X>X>X",
">X>X>X>X>X>XXX6.`.^.a.@ e W.].8X8X_.! w.v D.D o D.'.r.=.E.c.2 @X>X>X>X>X>X>X>X>X",
">X>X>X>X&XC 5.j ;.F : q :X& ^._.8Xh.#.5 1.P 1 E A.Z.o.( ).~.} y >X>X>X>X>X>X>X>X",
">X>X>X>Xx S . O r u XX@X9 @ p K.F.g.6 Y V.J _ ! C.z._ 4 `.8X#.q >X>X>X>X>X>X>X>X",
">X>X>X>Xs g + b u >X:Xs Q O.) / 0.~ k j L a a @.[.#.< > ~.8X$.b >X>X>X>X>X>X>X>X",
">X>X>X>Xt v.g }.:X>X.XU M.&.` , _ 3 < ` *.3 +.#.@.) @ ] c.7X$.n >X>X>X>X>X>X>X>X",
">X>X>X>X:X$X:X=X>X>Xb.M.M.f.} > @ $ f 1 4 ` #.} 2 @ @ ( y.T.O.b.>X>X>X>X>X>X>X>X",
">X>X>X>X>X>X>X>X>X>XM M.g.g.&.= t *X>X+XN 7 - $ q u $ 4 R C.} oX>X>X>X>X>X>X>X>X",
">X>X>X>X>X>X>X>X>X>Xx M.t.3 c %X>X>X>X>X>X>X>X>X>X>Xv.> u.C.<.=X>X>X>X>X>X>X>X>X",
">X>X>X>X>X>X>X>X>X>Xh M.d., r >X>X>X>X>X>X>X>X>X>X>X=X* | ~ >.&X>X>X>X>X>X>X>X>X",
">X>X>X>X>X>X>X>X>X>X}.>.O.o X .X>X>X>X>X>X>X>X>X>X>X>XB = 5 q.|.>X>X>X>X>X>X>X>X",
">X>X>X>X>X>X>X>X>X>X>Xv.8 . N.G =X>X>X>X>X>X>X>X>X>X>X:Xq   q.B >X>X>X>X>X>X>X>X",
">X>X>X>X>X>X>X>X>X>X>X>X>Xb + V.v.>X>X>X>X>X>X>X>X>X>X>Xr O w.|.>X>X>X>X>X>X>X>X",
">X>X>X>X>X>X>X>X>X>X>X>Xn.P H 0 *X>X>X>X>X>X>X>X>X>X>X#XS B.<.:X>X>X>X>X>X>X>X>X",
">X>X>X>X>X>X>X>X&Xz O S U B.0 >X>X>X>X>X>X>X>X>X>X>X:Xz M.M.;.=X>X>X>X>X>X>X>X>X",
">X>X>X>X>X>X>X>Xw 9 % H S P i >X>X>X>X>X>X>X>X>X>X>Xb X K L <.B >X>X>X>X>X>X>X>X",
">X>X>X>X>X>X>X>X*X9 7 + $ H }.>X>X>X>X>X>X>X>X>X>X>X0 7 y X 9 N >X>X>X>X>X>X>X>X",
">X>X>X>X>X>X>X>X>X}.v.e XX7 *X>X>X>X>X>X>X>X>X>X>X>X:X*X>Xv.$X@X>X>X>X>X>X>X>X>X",
">X>X>X>X>X>X>X>X>X>X>X>X>X=X>X>X>X>X>X>X>X>X>X>X>X>X>X>X>X>X>X>X>X>X>X>X>X>X>X>X",
">X>X>X>X>X>X>X>X>X>X>X>X>X>X>X>X>X>X>X>X>X>X>X>X>X>X>X>X>X>X>X>X>X>X>X>X>X>X>X>X"
};
