/* XPM */
static char *a1a88dc7f6fc499ebdbc8e4ea0856c6fOOAU8mzVZfUMuNdP[] = {
/* columns rows colors chars-per-pixel */
"40 40 219 2 ",
"   c #5B493D",
".  c #664C3C",
"X  c #734B3F",
"o  c #69523D",
"O  c #7B5837",
"+  c #263146",
"@  c #2B3346",
"#  c #2C374B",
"$  c #3B3545",
"%  c #373845",
"&  c #34334C",
"*  c #3B314C",
"=  c #3E3B52",
"-  c #493A45",
";  c #56354D",
":  c #522F52",
">  c #5D2F56",
",  c #4F3151",
"<  c #513152",
"1  c #5B3352",
"2  c #603A4B",
"3  c #6C2F5A",
"4  c #772E5D",
"5  c #7A2E5E",
"6  c #683455",
"7  c #783657",
"8  c #39444C",
"9  c #2D4150",
"0  c #384954",
"q  c #3A5459",
"w  c #375B62",
"e  c #3A6769",
"r  c #3D7774",
"t  c #3E7976",
"y  c #434B4E",
"u  c #5B4242",
"i  c #5B5547",
"p  c #494855",
"a  c #545959",
"s  c #684545",
"d  c #7A4948",
"f  c #5A6858",
"g  c #716A4E",
"h  c #545466",
"j  c #6F5B61",
"k  c #436764",
"l  c #5C666C",
"z  c #457876",
"x  c #547D73",
"c  c #666468",
"v  c #747C68",
"b  c #6E6B74",
"n  c #77777C",
"m  c #A82C33",
"M  c #875B36",
"N  c #98573D",
"B  c #AE5D3D",
"V  c #896339",
"C  c #986330",
"Z  c #AC6C2E",
"A  c #B5702B",
"S  c #BD732B",
"D  c #A36833",
"F  c #BA793C",
"G  c #C77728",
"H  c #D97D26",
"J  c #D16B38",
"K  c #F57D2D",
"L  c #E56A3D",
"P  c #E97632",
"I  c #EB7236",
"U  c #F47C32",
"Y  c #F3793C",
"T  c #8F3C43",
"R  c #8A365B",
"E  c #943A59",
"W  c #852E61",
"Q  c #8E2E64",
"!  c #952F65",
"~  c #9B2E67",
"^  c #893061",
"/  c #983663",
"(  c #A32E6A",
")  c #AB2E6C",
"_  c #B32D6F",
"`  c #A63465",
"'  c #BD3C62",
"]  c #BA326C",
"[  c #BC2D71",
"{  c #CA386A",
"}  c #D9396C",
"|  c #C32D74",
" . c #CA2D76",
".. c #D32D77",
"X. c #D92C7A",
"o. c #DD3473",
"O. c #E93476",
"+. c #EA3476",
"@. c #854946",
"#. c #944A4A",
"$. c #82575F",
"%. c #935858",
"&. c #A35245",
"*. c #AB5942",
"=. c #B35647",
"-. c #AE4655",
";. c #A64859",
":. c #8C6847",
">. c #8F7447",
",. c #836650",
"<. c #9C7555",
"1. c #A97947",
"2. c #AF7652",
"3. c #A84663",
"4. c #847879",
"5. c #BC6F62",
"6. c #C95849",
"7. c #D75A4A",
"8. c #DC4B5B",
"9. c #C85553",
"0. c #DA5F59",
"q. c #E65D4B",
"w. c #F25D4E",
"e. c #EF4E5D",
"r. c #E75655",
"t. c #F15457",
"y. c #D16D4D",
"u. c #F26545",
"i. c #F36A40",
"p. c #F26149",
"a. c #F36B4A",
"s. c #F57846",
"d. c #EE6C50",
"f. c #F26559",
"g. c #D84164",
"h. c #C44772",
"j. c #ED4566",
"k. c #ED5364",
"l. c #DF6669",
"z. c #F06B6A",
"x. c #43847D",
"c. c #4C8379",
"v. c #568977",
"b. c #58877D",
"n. c #66897B",
"m. c #F58C1F",
"M. c #E98621",
"N. c #F58426",
"B. c #F38A22",
"V. c #F5802F",
"C. c #F6932D",
"Z. c #E78431",
"A. c #F69633",
"S. c #F79836",
"D. c #F6943E",
"F. c #F79C3E",
"G. c #918375",
"H. c #B09277",
"J. c #D28D57",
"K. c #EA8D45",
"L. c #F68D48",
"P. c #F59443",
"I. c #F79D43",
"U. c #F68A53",
"Y. c #F79854",
"T. c #F7A047",
"R. c #F7A24A",
"E. c #F8A653",
"W. c #F8AA5C",
"Q. c #C09468",
"!. c #D79E67",
"~. c #C79C73",
"^. c #F69371",
"/. c #CAA27B",
"(. c #F8AE62",
"). c #F7AA69",
"_. c #F9B168",
"`. c #EFB274",
"'. c #F9B772",
"]. c #FABB7A",
"[. c #EE2C80",
"{. c #806980",
"}. c #478780",
"|. c #448C82",
" X c #4C8A82",
".X c #558980",
"XX c #499789",
"oX c #4B9B8C",
"OX c #579687",
"+X c #718B84",
"@X c #56A28D",
"#X c #4BA292",
"$X c #4DAA97",
"%X c #4EAD99",
"&X c #55A997",
"*X c #52AE99",
"=X c #4FB39D",
"-X c #51B29B",
";X c #58B69B",
":X c #6AA391",
">X c #50B7A0",
",X c #52BDA3",
"<X c #54C2A7",
"1X c #8D8885",
"2X c #908F8A",
"3X c #9A9995",
"4X c #AD988A",
"5X c #B7A38D",
"6X c #B3A9A3",
"7X c #D79C86",
"8X c #F6BB82",
"9X c #FAC185",
"0X c #FBC58E",
"qX c #EBC49D",
"wX c #F8C895",
"eX c #FBCB9B",
"rX c #E9C8A8",
"tX c #FAD2A7",
"yX c #F2D5B8",
/* pixels */
"<X<X<X<X<X<X<X<X<X<X<X<X<X<X<X<X<X<X<X<X<X<X<X<X<X<X<X<X<X<X<X<X<X<X<X<X<X<X<X<X",
"<X<X<X<X<X<X<X<X<X<X<X<X<X<X<X<X<X<X<X<X<X<X<X<X<X<X<X<X<X<X<X$XOXc.<X<X<X<X<X<X",
"<X<X<X<X<X<X<X<X<X<X<X<X<X<X<X<X<X<X<X<X<X<X<X<X<X<X<X,X%XOX+X1.F r.h <X<X<X<X<X",
"<X<X<X<X<X<X<X<X<X<X<X<X<X<X<X<X<X<X<X<X<X<X<X<X<XoX>.:.<.J.eXE.Y ^.7X}.<X<X<X<X",
"<X<X<X<X<X<X<X<X<X<X<X<X<X<X<X<X<X<X<X<X<X<X<X<X-Xd j . N U Y.h.{.n b q <X<X<X<X",
"<X<X<X<X<X<X<X<X<X<X<X<X<X<X<X<X<X<X<X<X<X<X<X<Xf =.M N j.r.3.n p @ % .X<X<X<X<X",
"<X<X<X<X<X<X<X<X<X<X<X<X<X<X<X<X<X<X<X<X<X<X<XXX*.k.J.;., y c 8 @ @ n &X<X<X<X<X",
"<X<X<X<X<X<X<X<X<X<X<X<X<X<X<X<X<X<X<X<X<X<X,Xg { ] R - + + @ @ l l :X<X<X<X<X<X",
"<X<X<X<X#X|.<X<X<X<X<X<X<X<X<X<X<X<X<X<X<X<X.X2.) 9.h.d % $ $ $ .X<X<X<X<X<X<X<X",
"<X<X<X<Xa #X<X<X<X<X<X<X<X<X<X<X<X<X<X<X<X,XG.0.R 8XtXrXG.s T m m n.OX<X<X<X<X<X",
"<X<X<X@X#.%X<X<X<X<X<X<X<X<X<X<X<X<X<X<X<Xz /.t.3 L I.F.S.!.4.%.;.$.6X+X<X<X<X<X",
"<X<X<Xb.6.OX<X<X<X<X<X<X<X<X<X<X<XXXz w q % (.a.( ` i.d.U w.P.~.4X1X3Xc #X<X<X<X",
"<X<X<Xb.q.v.<X<X<X<X<X<X<X<X<XOX2X6XyXtXH.p U.P.o.* W ( ' ] o.w.D.R.I.9.#X<X<X<X",
"<X<X<Xb.g.J.&X<X<X<X<X<X,X X3XyXtX0X0X0X0X%.a._.f.~ + + + + @ 6 / -.` b <X<X<X<X",
"<X<X<XXX( Y 5XOX=X<X;Xc.2XrXeX0X0X0X(.0X'.l.e.(.W.) ) ~ @ e %X<X,X=X=X<X<X<X<X<X",
"<X<X<X=X1 } L.qX5X1X5XqXwX0X0X0X8XA.B.9XI.f.X.P.L.9.i.| @ |.<X<X<X<X<X<X<X<X<X<X",
"<X<X<X<Xw ~ +.a.(.'.'.W.F.B.R.9XA.H Z.9XV.t.) 7.Y.I.q.R 7.7 ,X<X<X<X<X<X<X<X<X<X",
"<X<X<X<X=X= ) X.+.t.p.t.p.P W.E.B.&.R.F.w.+.5 F ].K L B.L 6.OX<X<X<X<X<X<X<X<X<X",
"<X<X<X<X<XoX& Q | X.[ o.7.J 0XC.D L C.u.| ( - 8XA.S.m.C.@.f.l <X<X<X<X<X<X<X<X<X",
"<X<X<X<X<X<XXX+ + & 3 I @.G eXm.7 U.y.^ * > 2.eXE.W.R.!.; d.<.,X<X<X<X<X<X<X<X<X",
"<X<X<X<X<X<X<X#X9 @ { C.d P eXB.4 K.~.< E y.wX9X0X0XwX,.< 5.,.x.*X<X<X<X<X<X<X<X",
"<X<X<X<X<X<X<X<XoX3 z.W.#.q.'.C.. N S.j 8.U _.0X0X].Q.e + y.!.`.<.oX<X<X<X<X<X<X",
"<X<X<X<X<X<X<X<Xr _ ^.(.E { B.C.L , S :.6 ..s.0X_.!.$ ,Xw 2 B &.s 1.v *X<X<X<X<X",
"<X<X<X<X<X<X<X<Xw ..0X).5 ! j.N.U Q Z M.H 7 a.S.K.- + 0 #XoXt e o   M v <X<X<X<X",
"<X<X<X<X<X<X<X<Xk } wX^.< : ..[. .u u A s @.I 6.^ W } P i ,X<Xt k O q i <X<X<X<X",
"<X<X<X<X<X<X<X<Xz } 9Xk.W + W  .X.| 4 @.! , 5 Q > ~ +.m.S XX<X,X|.y x.e <X<X<X<X",
"<X<X<X<X<X<X<X<Xc.} T.e.E + + 3 _ X.! 5 1 p # + : _ u.m.m.c.<X<X=X,X%X<X<X<X<X<X",
"<X<X<X<X<X<X<X<XOX] B.K 5 # t w # = 0 z @X<X=Xe * +.u.u.m.x <X<X<X<X<X<X<X<X<X<X",
"<X<X<X<X<X<X<X<X%X-.N.r.: x.<X<X<X<X<X<X<X<X<X<X&Xh 4 p.m.g <X<X<X<X<X<X<X<X<X<X",
"<X<X<X<X<X<X<X<X&X=.i._ & >X<X<X<X<X<X<X<X<X<X<X<Xe > i.m.a <X<X<X<X<X<X<X<X<X<X",
"<X<X<X<X<X<X<X<X X7.6 * z <X<X<X<X<X<X<X<X<X<X<XXX. X g.=.|.<X<X<X<X<X<X<X<X<X<X",
"<X<X<X<X<X<X<X<Xz 7.- e <X<X<X<X<X<X<X<X<X<X<X-XV H   9 x.<X<X<X<X<X<X<X<X<X<X<X",
"<X<X<X<X<X<X<X<X X8.. e <X<X<X<X<X<X<X<X<X<X<Xx.M.O k <X<X<X<X<X<X<X<X<X<X<X<X<X",
"<X<X<X<X<X<X<X<X,X;.M.V $X<X<X<X<X<X<X<X<X<X<X=Xq C S b.<X<X<X<X<X<X<X<X<X<X<X<X",
"<X<X<X<X<X<X<X<X=X&.m.m.f ,X<X<X<X<X<X<X<X<X<X<X,Xq M.G M o f -X<X<X<X<X<X<X<X<X",
"<X<X<X<X<X<X<X<Xx &.A Z . k <X<X<X<X<X<X<X<X<X<X<Xt G M C $ 0 e <X<X<X<X<X<X<X<X",
"<X<X<X<X<X<X<X<Xz 0 . r 8 q <X<X<X<X<X<X<X<X<X<X<X|.D # O 8 q =X<X<X<X<X<X<X<X<X",
"<X<X<X<X<X<X<X<X#X$Xx.<X=X,X<X<X<X<X<X<X<X<X<X<X<X=X8 oXe x.|.<X<X<X<X<X<X<X<X<X",
"<X<X<X<X<X<X<X<X<X<X<X<X<X<X<X<X<X<X<X<X<X<X<X<X<X<X-X<X<X<X<X<X<X<X<X<X<X<X<X<X",
"<X<X<X<X<X<X<X<X<X<X<X<X<X<X<X<X<X<X<X<X<X<X<X<X<X<X<X<X<X<X<X<X<X<X<X<X<X<X<X<X"
};
