/* XPM */
static char *b17467720c1243da8c955e338bafad2ey5yXlsnB5jLCpK8g[] = {
/* columns rows colors chars-per-pixel */
"40 40 59 1 ",
"  c #685126",
". c #7D4B33",
"X c #874F35",
"o c #885631",
"O c #8A5136",
"+ c #8D5236",
"@ c #8D5932",
"# c #915437",
"$ c #985332",
"% c #995433",
"& c #9B5534",
"* c #9E5736",
"= c #945D32",
"- c #945B34",
"; c #995F33",
": c #9F5837",
"> c #955538",
", c #A05837",
"< c #A35B39",
"1 c #A45B3A",
"2 c #A35C3A",
"3 c #A65D3B",
"4 c #906828",
"5 c #996B2A",
"6 c #9B6C2B",
"7 c #9E6D2B",
"8 c #9B6033",
"9 c #9D6133",
"0 c #A06E2B",
"q c #A26F2C",
"w c #A1702B",
"e c #A6732B",
"r c #A7742B",
"t c #A3702C",
"y c #A6722C",
"u c #AA752B",
"i c #A9732C",
"p c #AC772C",
"a c #AD782B",
"s c #A8603A",
"d c #B16F33",
"f c #B16A37",
"g c #A67C30",
"h c #BB7633",
"j c #B87334",
"k c #BC832A",
"l c #B78530",
"z c #C2862B",
"x c #D2902C",
"c c #CC9231",
"v c #C99334",
"b c #838B6A",
"n c #809765",
"m c #849964",
"M c #93A869",
"N c #70AE83",
"B c #71B084",
"V c #77B484",
"C c #54C2A7",
/* pixels */
"CCCCCCCCCCCCCCCCCCCCCCCCCCCCCCCCCCCCCCCC",
"CCCCCCCCCCNVVVVVVVVVVVVVVVVVVBCCCCCCCCCC",
"CCCCCCCCCClkxxxxxxxxxxxxxxxxzgCCCCCCCCCC",
"CCCCCCCCCCca98;8;=;=;;=@==@o5vCCCCCCCCCC",
"CCCCCCCCCCcp3:***,,,**<:<,,3ivCCCCCCCCCC",
"CCCCCCCCCCcp3*333:*333&<331<ivCCCCCCCCCC",
"CCCCCCCCCCcu3*333**333%<33<<ivCCCCCCCCCC",
"CCCCCCCCCCcu3*333:*333$133<<ivCCCCCCCCCC",
"CCCCCCCCCCcu3*333**333$3331<yvCCCCCCCCCC",
"CCCCCCCCCCcu3:333::333$3331<yvCCCCCCCCCC",
"CCCCCCCCCCcu3:333::333$3333,yvCCCCCCCCCC",
"CCCCCCCCCCcr3:333::333%1333:yvCCCCCCCCCC",
"CCCCCCCCCCcr3:333::333&<333:yvCCCCCCCCCC",
"CCCCCCCCCCcu3:333::333&<333:yvCCCCCCCCCC",
"CCCCCCCCCCcr3:333,:333*<333*yvCCCCCCCCCC",
"CCCCCCCCCCce3:333::333*,333*yvCCCCCCCCCC",
"CCCCCCCCCCcr3*<,**%****&<<,*yvCCCCCCCCCC",
"CCCCCCCCCCcr3333333333333333yvCCCCCCCCCC",
"CCCCCCCCCCcw3&**,:***,**.#+OtvCCCCCCCCCC",
"CCCCCCCCCCcw3*333**333%<+f3OtvCCCCCCCCCC",
"CCCCCCCCCCcw3*333**333%<- d+0vCCCCCCCCCC",
"CCCCCCCCCCcw3*333:*333$3=4hOqvCCCCCCCCCC",
"CCCCCCCCCCcw3:333:*333$3+jsOqvCCCCCCCCCC",
"CCCCCCCCCCcw3*333:*333$3O32X7vCCCCCCCCCC",
"CCCCCCCCCCcw3:333::333$3>##*7vCCCCCCCCCC",
"CCCCCCCCCCc73:333::333&<333:0vCCCCCCCCCC",
"CCCCCCCCCCc73:333::333&<333:7vCCCCCCCCCC",
"CCCCCCCCCCc63:333,:333*<333:7vCCCCCCCCCC",
"CCCCCCCCCCc73*333::333*<333*7vCCCCCCCCCC",
"CCCCCCCCCCc73:333::333:,333*7vCCCCCCCCCC",
"CCCCCCCCCCc73,*,:*:<,:<&***<7vCCCCCCCCCC",
"CCCCCCCCCCc631<<<<<<1<3333336vCCCCCCCCCC",
"CCCCCCCCCCc73*<<<<<<<<****&37vCCCCCCCCCC",
"CCCCCCCCCCc53:333333333333:37vCCCCCCCCCC",
"CCCCCCCCCCc63:333333333333,37vCCCCCCCCCC",
"CCCCCCCCCCc63:333333333333,37vCCCCCCCCCC",
"CCCCCCCCCCc73:333333333333:37vCCCCCCCCCC",
"CCCCCCCCCCcu3,*,<******,,,:3qvCCCCCCCCCC",
"CCCCCCCCCCMmbbbbbbbbbbbbbbbbnMCCCCCCCCCC",
"CCCCCCCCCCCCCCCCCCCCCCCCCCCCCCCCCCCCCCCC"
};
