/* XPM */
static char *_4f9c8faa25b4a01a336e31749eb6876fBaqUm7LXdAtdwTn[] = {
/* columns rows colors chars-per-pixel */
"40 40 168 2 ",
"   c #2D2D1B",
".  c #3D2F16",
"X  c #353620",
"o  c #443317",
"O  c #493A1B",
"+  c #4C3818",
"@  c #2D4F3F",
"#  c #34523F",
"$  c #774210",
"%  c #7B4612",
"&  c #7F511B",
"*  c #4D4B2C",
"=  c #5B4F29",
"-  c #4F5233",
";  c #455338",
":  c #495A3E",
">  c #585532",
",  c #535F3E",
"<  c #634E25",
"1  c #694F24",
"2  c #6F5628",
"3  c #725323",
"4  c #735525",
"5  c #745525",
"6  c #7F5823",
"7  c #715D2E",
"8  c #7A5B29",
"9  c #7F5E29",
"0  c #665F36",
"q  c #6D5F33",
"w  c #7E632F",
"e  c #6C6136",
"r  c #6F693D",
"t  c #315846",
"y  c #315D4C",
"u  c #2D6556",
"i  c #356351",
"p  c #3D6751",
"a  c #3A6B57",
"s  c #3D6A54",
"d  c #3F6C55",
"f  c #3A6C59",
"g  c #37705E",
"h  c #3D715B",
"j  c #3A735F",
"k  c #3D735D",
"l  c #377462",
"z  c #3A7764",
"x  c #3B7B67",
"c  c #3E7B66",
"v  c #3B7E6A",
"b  c #3E7F6A",
"n  c #4E6547",
"m  c #41634B",
"M  c #4F6C4E",
"N  c #596643",
"B  c #5B6744",
"V  c #5A6946",
"C  c #5D6A46",
"Z  c #536A4A",
"A  c #506B4E",
"S  c #516C4D",
"D  c #566D4C",
"F  c #5A724F",
"G  c #476E53",
"H  c #476E54",
"J  c #486B51",
"K  c #4A6F54",
"L  c #477157",
"P  c #447259",
"I  c #517A5C",
"U  c #787140",
"Y  c #437A63",
"T  c #497D62",
"R  c #4D7D61",
"E  c #844A12",
"W  c #884D13",
"Q  c #8D4E13",
"!  c #8F5013",
"~  c #8D5014",
"^  c #855119",
"/  c #8C561B",
"(  c #8D591E",
")  c #925113",
"_  c #945213",
"`  c #975414",
"'  c #985414",
"]  c #9D5917",
"[  c #92571A",
"{  c #955718",
"}  c #90581B",
"|  c #95581A",
" . c #90591C",
".. c #975B1C",
"X. c #935C1F",
"o. c #A75D16",
"O. c #A95E17",
"+. c #A35C18",
"@. c #A45D18",
"#. c #AC6017",
"$. c #A3631E",
"%. c #A4631E",
"&. c #AC631A",
"*. c #A8631C",
"=. c #AF671D",
"-. c #B36519",
";. c #B86618",
":. c #B8681A",
">. c #BA6D1F",
",. c #8A5D24",
"<. c #A66823",
"1. c #C76F1B",
"2. c #C3701E",
"3. c #CA711B",
"4. c #CF731B",
"5. c #CA711C",
"6. c #CC741E",
"7. c #D3771E",
"8. c #D6771D",
"9. c #D7781D",
"0. c #DA7B1F",
"q. c #DC7A1D",
"w. c #DE7C1E",
"e. c #E37E1E",
"r. c #E57F1E",
"t. c #CC7620",
"y. c #3B826F",
"u. c #3D816D",
"i. c #3D8672",
"p. c #3E8C78",
"a. c #3E917C",
"s. c #40836D",
"d. c #43856E",
"f. c #49866D",
"g. c #47886F",
"h. c #408570",
"j. c #438871",
"k. c #448A72",
"l. c #438C76",
"z. c #468D75",
"x. c #428F79",
"c. c #4B9177",
"v. c #41907B",
"b. c #46927B",
"n. c #E6801F",
"m. c #EB831F",
"M. c #EC831F",
"N. c #EE8420",
"B. c #F08620",
"V. c #F68921",
"C. c #429681",
"Z. c #449781",
"A. c #479B83",
"S. c #4C9B82",
"D. c #499F86",
"F. c #449E88",
"G. c #4BA58D",
"H. c #4CA78E",
"J. c #48A790",
"K. c #4BAD95",
"L. c #4CB198",
"P. c #4FB79E",
"I. c #50B89F",
"U. c #50BAA0",
"Y. c #52BDA3",
"T. c #53BFA4",
"R. c #53C0A5",
"E. c #54C2A7",
/* pixels */
"E.E.E.E.E.E.E.E.E.E.E.E.E.E.E.E.E.E.E.E.E.E.E.E.E.E.E.E.E.E.E.E.E.E.E.E.E.E.E.E.",
"E.E.E.E.E.E.E.E.E.E.E.E.E.E.E.E.E.E.E.E.E.E.E.E.E.E.E.E.E.E.E.E.E.E.E.E.E.E.E.E.",
"E.E.E.E.E.E.E.E.E.E.E.E.E.E.E.E.E.P.c.f.f.S.Y.E.E.E.E.E.E.E.E.E.E.E.E.E.E.E.E.E.",
"E.E.E.E.E.E.E.E.E.E.E.E.E.E.P.T 9 @.e.V.V.7.{ r k.E.E.E.E.E.E.E.E.E.E.E.E.E.E.E.",
"E.E.E.E.E.E.E.E.E.E.E.E.E.u.& m.V.V.V.V.V.V.V.V.7.= G.E.E.E.E.E.E.E.E.E.E.E.E.E.",
"E.E.E.E.E.E.E.E.E.E.E.E.L :.V.V.V.V.V.V.V.V.V.V.V.V.^ D.E.E.E.E.E.E.E.E.E.E.E.E.",
"E.E.E.E.E.E.E.E.E.E.E.Y 1.V.V.V.V.V.V.V.V.V.V.V.V.V.V./ H.E.E.E.E.E.E.E.E.E.E.E.",
"E.E.E.E.E.E.E.E.E.E.A.+.V.V.V.V.V.V.V.V.V.V.V.V.V.V.V.V.= T.E.E.E.E.E.E.E.E.E.E.",
"E.E.E.E.E.E.E.E.E.E.> V.V.V.V.V.V.V.V.V.V.V.V.V.V.V.V.V.8.c E.E.E.E.E.E.E.E.E.E.",
"E.E.E.E.E.E.E.E.E.D.-.V.V.V.V.V.V.V.V.V.V.V.V.V.V.V.V.V.V.2 E.E.E.E.E.E.E.E.E.E.",
"E.E.E.E.E.E.E.E.E.s V.e.V.V.V.V.V.V.V.V.V.V.V.V.V.V.V.V.V.O.f E.E.E.E.E.E.E.E.E.",
"E.E.E.E.E.E.E.E.E.0 #.#.V.V.V.V.V.V.V.V.V.V.V.V.V.V.V.V.V.e.W ; T.E.E.E.E.E.E.E.",
"E.E.E.E.E.E.E.E.E.+ 9.B.w.V.V.V.V.V.V.V.V.V.V.V.V.V.V.V.V.V.E q.p E.E.E.E.E.E.E.",
"E.E.E.E.E.E.E.E.M 0.q.$ w.V.V.V.V.V.V.V.V.V.V.V.V.V.V.V.V.V.  e.& R.E.E.E.E.E.E.",
"E.E.E.E.E.E.E.j.7.8.) V.V.V.V.V.V.V.V.V.V.V.V.V.V.V.V.V.V.B.t ;.%.L.E.E.E.E.E.E.",
"E.E.E.E.E.E.Y.,.B.. V.V.V.V.V.V.V.V.V.V.V.V.V.V.V.V.V.V.V.5.# n.X.Y.E.E.E.E.E.E.",
"E.E.E.E.E.E.g.8.] h.5.V.V.V.V.V.V.V.V.V.V.V.V.V.V.V.V.V.V.~ t.n.F E.E.E.E.E.E.E.",
"E.E.E.E.E.E.l V. .E.5 V.V.V.V.V.V.V.V.V.V.V.V.V.V.V.V.V.B._ 8.m R.E.E.E.E.E.E.E.",
"E.E.E.E.E.E.p.8.3.b.i.6.V.V.V.V.V.V.V.V.V.V.V.V.V.V.V.V.` r./ Y.E.E.E.E.E.E.E.E.",
"E.E.E.E.E.E.Y.1 V.>.V o ' o.m.V.V.V.V.V.V.V.V.V.V.V.V.1.O.m.n E.E.E.E.E.E.E.E.E.",
"E.E.E.E.E.E.E.D.3 9.V.V.V.n.) #.V.V.V.V.V.V.V.V.V.V.1.) B.Q - E.E.E.E.E.E.E.E.E.",
"E.E.E.E.E.E.E.E.Y.y.&.V.V.V.V.! V.V.V.V.V.V.V.V.B.Q @ 8 % < s.E.E.E.E.E.E.E.E.E.",
"E.E.E.E.E.E.E.E.E.E.I 0.V.V.V.! V.V.V.V.V.V.m.| W 4.d.E.E.E.E.E.E.E.E.E.E.E.E.E.",
"E.E.E.E.E.E.E.E.E.E.R.O O.V.9.X N.V.* C D P v i.8.V.k E.E.E.E.E.E.E.E.E.E.E.E.E.",
"E.E.E.E.E.E.E.E.E.E.T.= ( 7 x l.0.V.G E.E.E.E.K.=.V.L E.E.E.E.E.E.E.E.E.E.E.E.E.",
"E.E.E.E.E.E.E.E.E.E.E.E.E.E.E.C.4.V.S E.E.E.E.T...V.Z E.E.E.E.E.E.E.E.E.E.E.E.E.",
"E.E.E.E.E.E.E.E.E.E.E.E.E.E.E.C.4.V.M E.E.E.E.E.} V.B E.E.E.E.E.E.E.E.E.E.E.E.E.",
"E.E.E.E.E.E.E.E.E.E.E.E.E.E.E.x.8.V.H E.E.E.E.E./ V.N E.E.E.E.E.E.E.E.E.E.E.E.E.",
"E.E.E.E.E.E.E.E.E.E.E.E.E.E.E.b r.V.k E.E.E.E.T.} V.Z E.E.E.E.E.E.E.E.E.E.E.E.E.",
"E.E.E.E.E.E.E.E.E.E.E.E.E.E.E.j V.N.c E.E.E.E.K.*.V.d E.E.E.E.E.E.E.E.E.E.E.E.E.",
"E.E.E.E.E.E.E.E.E.E.E.E.E.E.E.A V.5.Z.E.E.E.E.v.4.B.g E.E.E.E.E.E.E.E.E.E.E.E.E.",
"E.E.E.E.E.E.E.E.E.E.E.E.E.E.E.6 V.[ Y.E.E.E.E.j B.0.i I.E.E.E.E.E.E.E.E.E.E.E.E.",
"E.E.E.E.E.E.E.E.E.E.E.E.E.E.J.=.V.q E.E.E.E.E.K V.V.M.<.R Y.E.E.E.E.E.E.E.E.E.E.",
"E.E.E.E.E.E.E.E.E.E.E.E.E.E.h B.V.y E.E.E.E.E.z 6.V.V.V.n.: E.E.E.E.E.E.E.E.E.E.",
"E.E.E.E.E.E.E.E.E.E.E.E.E.E.e V.V.6.w l.E.E.E.E.z.U $.1.5.n E.E.E.E.E.E.E.E.E.E.",
"E.E.E.E.E.E.E.E.E.E.E.E.E.E.J w.V.V.V.9., E.E.E.E.E.U.F.C.E.E.E.E.E.E.E.E.E.E.E.",
"E.E.E.E.E.E.E.E.E.E.E.E.E.E.T.l 4 2.B.V.| P.E.E.E.E.E.E.E.E.E.E.E.E.E.E.E.E.E.E.",
"E.E.E.E.E.E.E.E.E.E.E.E.E.E.E.E.T.a.u a i.E.E.E.E.E.E.E.E.E.E.E.E.E.E.E.E.E.E.E.",
"E.E.E.E.E.E.E.E.E.E.E.E.E.E.E.E.E.E.E.E.E.E.E.E.E.E.E.E.E.E.E.E.E.E.E.E.E.E.E.E.",
"E.E.E.E.E.E.E.E.E.E.E.E.E.E.E.E.E.E.E.E.E.E.E.E.E.E.E.E.E.E.E.E.E.E.E.E.E.E.E.E."
};
