/* XPM */
static char *_0b3dcbdd27c4e8bd0af1ec1743fef61okjIX02TGHlKysQw[] = {
/* columns rows colors chars-per-pixel */
"40 40 9 1 ",
"  c #1D2433",
". c #1E2636",
"X c #202839",
"o c #222B3E",
"O c #232D3F",
"+ c #232D40",
"@ c #242E41",
"# c #252F44",
"$ c #253045",
/* pixels */
"Oo++@@@@@@+#@@#$$$$+$$$$$$$$#$$$$$$$$X$$",
"$$$$$$O@@@@@@@@o@+++@+++O@@@+@@@@o+++O@@",
"$$$$$$+$$$$$$$$+$$$$$$$$$$$$$$$$$$$$$$$$",
"$$$$$$+$$$$$$$$+$$$$$$$$#$$$$$$$$$$$$$$$",
"+O@+OOOOOOooO+Oo+++X+O+@O@@@+@@@@@@@@O+@",
"$@$$$$$$$$$+$$$$$$$o$$$$$$$$$$$$$$$$$+$$",
"$@#$$$$$$$$@$$$$$$$O$$$$$$$$$$$$$$$$$@$$",
"###@@@O@++@@+O+oOOOoooooooOOoO++OO+@@o++",
"$$$$$$@$$$$$$$$+$$$$$$$$$$$$$$$$$$$$$$$$",
"$$$$$$@$$$$$$$$+$$$$$$$$$$$$$$$$#$$$$$$$",
"$$@$$$$$$#@o@@@@@++.++++++OOXOOoooooo Xo",
"$$#$$$$$$$$+$$$$$$$o$$$$$$$$O$$$$$$$$o$$",
"@@+@@@@@@@@o@@@@@@@X@@@@@@@@o@@@+@@#O.@@",
"#$$$$$+$$$$$$$$@$$$$$$$@@$$$$$$$O$$$$$$$",
"$$$$$$@$$$$$$$$#$$$$$$$@#$$$$$$$+$$$$$$$",
"@@@@#@O@@@+@@@@+@@@O@@@++@@+O@@@o@@@+@@+",
"$$#$$$$$$$#$$$$$$$$+$$$$$$$$$$$$$$$$#$$$",
"$$#$$$$$$$@$$$$$$$$+$$$$$$$$#$$$$$$$+$$$",
"@+o@@@+OO+O@@@O+@@@o@@@o+@@@o@@@+++@O@@$",
"$$$$$$$$$$$$$$O$$$$$$$$O$$$$$$$$+$$$$$$$",
"$$$$$$+$$$$$$$@$$$$$$$$#$$$$$$$$+$$$$$$$",
"@OO@++X@@@+@@@@@$$@O@@@++++@+@++o++@@+@@",
"$@@$$$$$$$O$$$$$$$$O$$$$$$$$+$$$$$$$$+$$",
"$$@$$$$$$$+$$$$$$$$O$$$$$$$$@$$$$$$$$+$$",
"$$##@O#@++O@@@+@@@+o+++++O+@o+++O@@@@o@@",
"$$$$$+$$$$$$$$O$$$$$$$$@$$$$$$$$+$$$$$$$",
"$$$$$+$$$$$$$$+$$$$$$$$@$$$$$$$$+$$$$$$$",
"$$@$@+@##$@$$$+##@@@@@@+@@@@+@@@o+++O+++",
"$$+$$$$$$$+$$$$$$$$O$$$$$$$$@$$$$$$$@$$$",
"$$#$$$$$$$+$$$$$$$$o$$$$$$$$@$$$$$$$@$$$",
"#@+@@+@@@@o@@@@@@#$O$$$#$$$$@$$$@$##+@@@",
"$$$$$@$$$$$$$$@$$$$$$$$@$$$$$$$$+$$$$$$$",
"$$$$$@$$$$$$$$#$$$$$$$$$$$$$$$$$O$$$$$$$",
"@+oO++OOO+oOOOoOOOOo+ooXOOOOOOOOXO++o+@+",
"$$@$$$$$$$$$$$$$$$$@$$$$$$$$$$$$$$$$@$$$",
"$$@$$$$$$$@$$$$$$$$O$$$$$$$$$$$$$$$$@$$$",
"@#$@@OO++OO@@+O@@@@O@@@O@@@@@@@@+$@@O@@@",
"$$$$$@$$$$$$$$@$$$$$$$$+$$$$$$$$+$$$$$$$",
"$$$$$#@$$$$$$$$$$$$$$$$O$$$$$$$$#$$$$$$$",
"$$++OoXO+@@+O++@@@+@++@o@+OO+O@OO+++OOO@"
};
